<mxfile host="65bd71144e">
    <diagram id="e7QKRombbRCtrJ91kDgA" name="Page-1">
        <mxGraphModel dx="1297" dy="774" grid="1" gridSize="10" guides="1" tooltips="1" connect="1" arrows="1" fold="1" page="1" pageScale="1" pageWidth="850" pageHeight="1100" math="0" shadow="0">
            <root>
                <mxCell id="0"/>
                <mxCell id="1" parent="0"/>
                <mxCell id="2" value="Organization" style="swimlane;fontStyle=1;align=center;verticalAlign=top;childLayout=stackLayout;horizontal=1;startSize=26;horizontalStack=0;resizeParent=1;resizeParentMax=0;resizeLast=0;collapsible=1;marginBottom=0;" vertex="1" parent="1">
                    <mxGeometry x="40" y="110" width="200" height="180" as="geometry"/>
                </mxCell>
                <mxCell id="3" value="+ index: int&#10;+ ID: string&#10;+ country: string&#10;+ website: string&#10;+ description: string&#10;+founded: int&#10;+industry: string&#10;+ no_of_emp: int" style="text;strokeColor=none;fillColor=none;align=left;verticalAlign=top;spacingLeft=4;spacingRight=4;overflow=hidden;rotatable=0;points=[[0,0.5],[1,0.5]];portConstraint=eastwest;" vertex="1" parent="2">
                    <mxGeometry y="26" width="200" height="124" as="geometry"/>
                </mxCell>
                <mxCell id="4" value="" style="line;strokeWidth=1;fillColor=none;align=left;verticalAlign=middle;spacingTop=-1;spacingLeft=3;spacingRight=3;rotatable=0;labelPosition=right;points=[];portConstraint=eastwest;" vertex="1" parent="2">
                    <mxGeometry y="150" width="200" height="8" as="geometry"/>
                </mxCell>
                <mxCell id="5" value="+ Organization()" style="text;strokeColor=none;fillColor=none;align=left;verticalAlign=top;spacingLeft=4;spacingRight=4;overflow=hidden;rotatable=0;points=[[0,0.5],[1,0.5]];portConstraint=eastwest;" vertex="1" parent="2">
                    <mxGeometry y="158" width="200" height="22" as="geometry"/>
                </mxCell>
                <mxCell id="6" value="OrganizationDL" style="swimlane;fontStyle=1;align=center;verticalAlign=top;childLayout=stackLayout;horizontal=1;startSize=26;horizontalStack=0;resizeParent=1;resizeParentMax=0;resizeLast=0;collapsible=1;marginBottom=0;" vertex="1" parent="1">
                    <mxGeometry x="480" y="110" width="290" height="610" as="geometry"/>
                </mxCell>
                <mxCell id="7" value="+ organization: vector&lt;organization&gt;" style="text;strokeColor=none;fillColor=none;align=left;verticalAlign=top;spacingLeft=4;spacingRight=4;overflow=hidden;rotatable=0;points=[[0,0.5],[1,0.5]];portConstraint=eastwest;" vertex="1" parent="6">
                    <mxGeometry y="26" width="290" height="34" as="geometry"/>
                </mxCell>
                <mxCell id="8" value="" style="line;strokeWidth=1;fillColor=none;align=left;verticalAlign=middle;spacingTop=-1;spacingLeft=3;spacingRight=3;rotatable=0;labelPosition=right;points=[];portConstraint=eastwest;" vertex="1" parent="6">
                    <mxGeometry y="60" width="290" height="8" as="geometry"/>
                </mxCell>
                <mxCell id="9" value="+ ParseRecord(): Organization&#10;+ ReadFromFile(): vector&lt;Organization&gt;&#10;+ writeInFile(): void&#10;+ bubbleSort2(): vector&lt;Organization&gt;&#10;+ findMinimum2(): int&#10;+ selectionSort2(): vector&lt;Organization&gt;&#10;+ insertionSort2(): vector&lt;Organization&gt;&#10;+ merge2(): void&#10;+ mergeSort2(): vector&lt;Organization&gt;&#10;+ bubbleSort(): vector&lt;Organization&gt;&#10;+ findMinimum(): int&#10;+ selectionSort(): vector&lt;Organization&gt;&#10;+ insertionSort(): vector&lt;Organization&gt;&#10;+ merge(): void&#10;+ mergeSort(): vector&lt;Organization&gt;&#10;+ partition(): int&#10;+ quickSort(): void&#10;+ quickSort(): vector&lt;Organization&gt;&#10;+ leftChildIndex(): int&#10;+ rightChildIndex(): int&#10;&#10;+ heapify(): void&#10;+ heapSort(): vector&lt;Organization&gt;&#10;+ FindMaximum(): int&#10;+ countingSort(): vector&lt;Organization&gt;&#10;+ countingSort(): void&#10;+ radixSort(): vector&lt;Organization&gt;&#10;+ bucketSort(): vector&lt;Organization&gt;&#10;+ partition2(): int&#10;+ quickSort2(): void&#10;+ quickSort2(): vector&lt;Organization&gt;&#10;+ heapify2(): void&#10;+ heapSort2(): vector&lt;Organization&gt;&#10;+ FindMaximum2(): int&#10;+ countingSort2(): vector&lt;Organization&gt;&#10;+ countingSort2(): void&#10;+ radixSort2(): vector&lt;Organization&gt;&#10;+ bucketSort2(): vector&lt;Organization&gt;" style="text;strokeColor=none;fillColor=none;align=left;verticalAlign=top;spacingLeft=4;spacingRight=4;overflow=hidden;rotatable=0;points=[[0,0.5],[1,0.5]];portConstraint=eastwest;" vertex="1" parent="6">
                    <mxGeometry y="68" width="290" height="542" as="geometry"/>
                </mxCell>
                <mxCell id="10" value="Organization" style="swimlane;fontStyle=1;align=center;verticalAlign=top;childLayout=stackLayout;horizontal=1;startSize=26;horizontalStack=0;resizeParent=1;resizeParentMax=0;resizeLast=0;collapsible=1;marginBottom=0;" vertex="1" parent="1">
                    <mxGeometry x="40" y="370" width="200" height="120" as="geometry"/>
                </mxCell>
                <mxCell id="12" value="" style="line;strokeWidth=1;fillColor=none;align=left;verticalAlign=middle;spacingTop=-1;spacingLeft=3;spacingRight=3;rotatable=0;labelPosition=right;points=[];portConstraint=eastwest;" vertex="1" parent="10">
                    <mxGeometry y="26" width="200" height="8" as="geometry"/>
                </mxCell>
                <mxCell id="13" value="+ MainMenu(): string&#10;+ subMenu1(): string&#10;+ subMenu2(): string&#10;+ printRec(): void&#10;+ print(): void" style="text;strokeColor=none;fillColor=none;align=left;verticalAlign=top;spacingLeft=4;spacingRight=4;overflow=hidden;rotatable=0;points=[[0,0.5],[1,0.5]];portConstraint=eastwest;" vertex="1" parent="10">
                    <mxGeometry y="34" width="200" height="86" as="geometry"/>
                </mxCell>
                <mxCell id="14" value="" style="endArrow=classic;html=1;entryX=0.001;entryY=0.765;entryDx=0;entryDy=0;entryPerimeter=0;exitX=1.008;exitY=0.202;exitDx=0;exitDy=0;exitPerimeter=0;" edge="1" parent="1" source="3" target="7">
                    <mxGeometry width="50" height="50" relative="1" as="geometry">
                        <mxPoint x="240" y="240" as="sourcePoint"/>
                        <mxPoint x="290" y="190" as="targetPoint"/>
                    </mxGeometry>
                </mxCell>
                <mxCell id="15" value="vector&amp;lt;Organization&amp;gt;" style="edgeLabel;html=1;align=center;verticalAlign=middle;resizable=0;points=[];" vertex="1" connectable="0" parent="14">
                    <mxGeometry x="-0.2423" relative="1" as="geometry">
                        <mxPoint as="offset"/>
                    </mxGeometry>
                </mxCell>
                <mxCell id="16" value="1" style="text;html=1;align=center;verticalAlign=middle;resizable=0;points=[];autosize=1;strokeColor=none;fillColor=none;" vertex="1" parent="1">
                    <mxGeometry x="460" y="170" width="20" height="20" as="geometry"/>
                </mxCell>
                <mxCell id="17" value="&lt;strong style=&quot;box-sizing: border-box ; margin: 0px ; padding: 0px ; color: rgb(51 , 51 , 51) ; font-family: sans-serif ; font-size: 17.6px ; background-color: rgb(255 , 255 , 255)&quot;&gt;âˆž&lt;/strong&gt;" style="text;html=1;align=center;verticalAlign=middle;resizable=0;points=[];autosize=1;strokeColor=none;fillColor=none;" vertex="1" parent="1">
                    <mxGeometry x="240" y="170" width="30" height="20" as="geometry"/>
                </mxCell>
            </root>
        </mxGraphModel>
    </diagram>
</mxfile>